<svg width="67" height="26" viewBox="0 0 67 26" fill="none" xmlns="http://www.w3.org/2000/svg">
<path d="M0.728 26V0.799998H10.988C12.164 1.232 13.208 1.988 14.12 3.068C15.032 4.148 15.488 5.456 15.488 6.992C15.488 9.704 14.6 11.6 12.824 12.68V12.824C15.032 14.048 16.136 15.968 16.136 18.584C16.136 21.584 14.612 24.056 11.564 26H0.728ZM5.624 11.204H9.188C10.244 10.556 10.772 9.572 10.772 8.252C10.772 6.932 10.28 5.888 9.296 5.12H5.624V11.204ZM5.624 21.824H9.332C9.764 21.512 10.148 21.02 10.484 20.348C10.844 19.676 11.024 19.004 11.024 18.332C11.024 17.66 10.88 17.048 10.592 16.496C10.304 15.944 9.944 15.536 9.512 15.272H5.624V21.824ZM30.4992 0.799998C32.1792 2.168 33.4272 4.004 34.2432 6.308C35.0592 8.612 35.4672 10.988 35.4672 13.436C35.4672 15.86 35.0712 18.164 34.2792 20.348C33.4872 22.532 32.2272 24.416 30.4992 26H23.0832C21.3552 24.416 20.0952 22.532 19.3032 20.348C18.5112 18.164 18.1152 15.86 18.1152 13.436C18.1152 10.988 18.5232 8.612 19.3392 6.308C20.1552 4.004 21.4032 2.168 23.0832 0.799998H30.4992ZM25.4952 21.824H28.0872C28.6872 21.128 29.1912 20 29.5992 18.44C30.0312 16.856 30.2472 15.188 30.2472 13.436C30.2472 11.684 30.0432 10.04 29.6352 8.504C29.2272 6.944 28.7232 5.816 28.1232 5.12H25.4952C24.8952 5.816 24.3792 6.944 23.9472 8.504C23.5392 10.04 23.3352 11.684 23.3352 13.436C23.3352 15.188 23.5392 16.856 23.9472 18.44C24.3792 20 24.8952 21.128 25.4952 21.824ZM40.0515 0.799998H48.6915V5.12H41.7795L41.6715 5.336L47.4315 15.848C48.6075 17.96 49.1955 19.568 49.1955 20.672C49.1955 23.096 48.3915 24.872 46.7835 26H37.2435V21.824H44.6955L44.8035 21.608L38.3235 9.98C37.3875 8.3 36.9195 6.932 36.9195 5.876C36.9195 3.38 37.9635 1.688 40.0515 0.799998ZM55.7726 5.12H50.3366V0.799998H66.1046V5.12H60.6686V26H55.7726V5.12Z" fill="white"/>
</svg>
