<svg width="40" height="40" viewBox="0 0 40 40" fill="none" xmlns="http://www.w3.org/2000/svg">
<path d="M27.5 13.75V11.25C27.5 9.26088 26.7098 7.35322 25.3033 5.9467C23.8968 4.54018 21.9891 3.75 20 3.75C18.0109 3.75 16.1032 4.54018 14.6967 5.9467C13.2902 7.35322 12.5 9.26088 12.5 11.25V13.75M33.75 13.75C34.0815 13.75 34.3995 13.8817 34.6339 14.1161C34.8683 14.3505 35 14.6685 35 15V31.875C35 34.2375 32.9875 36.25 30.625 36.25H9.375C7.0125 36.25 5 34.3352 5 31.9727V15C5 14.6685 5.1317 14.3505 5.36612 14.1161C5.60054 13.8817 5.91848 13.75 6.25 13.75H33.75Z" stroke="white" stroke-width="3" stroke-linecap="round" stroke-linejoin="round"/>
<path d="M27.5 17.5V18.75C27.5 20.7391 26.7098 22.6468 25.3033 24.0533C23.8968 25.4598 21.9891 26.25 20 26.25C18.0109 26.25 16.1032 25.4598 14.6967 24.0533C13.2902 22.6468 12.5 20.7391 12.5 18.75V17.5" stroke="white" stroke-width="3" stroke-linecap="round" stroke-linejoin="round"/>
</svg>
